<mxfile host="app.diagrams.net" modified="2023-06-28T16:04:26.946Z" agent="Mozilla/5.0 (Windows NT 10.0; Win64; x64) AppleWebKit/537.36 (KHTML, like Gecko) Chrome/113.0.0.0 Safari/537.36 OPR/99.0.0.0" version="21.1.8" etag="YBrFw7DzOSev8N8BVqIQ" type="github">
  <diagram name="Strona-1" id="de0W5my9_UVeoqGW6DDl">
    <mxGraphModel>
      <root>
        <mxCell id="0" />
        <mxCell id="1" parent="0" />
      </root>
    </mxGraphModel>
  </diagram>
</mxfile>
